<svg xmlns="http://www.w3.org/2000/svg"
     viewBox="0 0 448 512"><!--!Font Awesome Free 6.5.1 by @fontawesome - https://fontawesome.com License - https://fontawesome.com/license/free Copyright 2024 Fonticons, Inc.-->
    <path d="M399.4 362.2c29.5-34.7 47.1-78.3 47.1-125.8C446.5 123.5 346.9 32 224 32S1.5 123.5 1.5 236.4 101.1 440.9 224 440.9a239.3 239.3 0 0 0 79.4-13.4 7.2 7.2 0 0 1 8.1 2.6c18.6 25.1 47.6 42.7 79.9 49.9a4.4 4.4 0 0 0 5.2-3.4 4.4 4.4 0 0 0 -.9-3.6 87 87 0 0 1 3.7-110.7zM329.5 212.4l-57.3 43.5L293 324.8a6.5 6.5 0 0 1 -9.9 7.2L224 290.9 164.9 332a6.5 6.5 0 0 1 -10-7.2l20.8-68.9-57.3-43.5a6.5 6.5 0 0 1 3.8-11.7l71.9-1.5 23.7-67.9a6.5 6.5 0 0 1 12.3 0l23.7 67.9 71.9 1.5a6.5 6.5 0 0 1 3.9 11.7z"/>
</svg>